<svg xmlns="http://www.w3.org/2000/svg" xmlns:xlink="http://www.w3.org/1999/xlink" viewBox="0 0 308.11 67.96"><defs><style>.cls-1{fill:#ff5637;}.cls-2,.cls-4{fill:#fff;}.cls-3{fill:url(#linear-gradient);}.cls-4{opacity:0.85;}</style><linearGradient id="linear-gradient" x1="60.43" y1="64.45" x2="13.67" y2="10.59" gradientUnits="userSpaceOnUse"><stop offset="0" stop-color="#ff416a"/><stop offset="1" stop-color="#ff4b2b"/></linearGradient></defs><title>logo-white_1</title><g id="Layer_2" data-name="Layer 2"><g id="Layer_1-2" data-name="Layer 1"><path class="cls-1" d="M101,25.58h6v20h-6V43.7a7.41,7.41,0,0,1-6,2.44,8.84,8.84,0,0,1-6.76-3,10.69,10.69,0,0,1-2.8-7.52,10.59,10.59,0,0,1,2.8-7.48A8.88,8.88,0,0,1,95.08,25a7.41,7.41,0,0,1,6,2.44ZM96.28,40.46a4.67,4.67,0,0,0,3.44-1.32A4.83,4.83,0,0,0,101,35.58,4.83,4.83,0,0,0,99.72,32a5.14,5.14,0,0,0-6.88,0,4.83,4.83,0,0,0-1.32,3.56,4.83,4.83,0,0,0,1.32,3.56A4.67,4.67,0,0,0,96.28,40.46Z"/><path class="cls-1" d="M112,22.82a3.43,3.43,0,0,1,0-4.88,3.57,3.57,0,0,1,5,0,3.36,3.36,0,0,1,0,4.88A3.65,3.65,0,0,1,112,22.82Zm-.52,22.76v-20h6v20Z"/><path class="cls-2" d="M150,17.58v28h-6.4V29.3L136.4,41.18h-.72L128.44,29.3V45.58H122v-28h6.4L136,30l7.6-12.44Z"/><path class="cls-2" d="M169.16,25.58h6v20h-6V43.7a7.41,7.41,0,0,1-6,2.44,8.84,8.84,0,0,1-6.76-3,10.69,10.69,0,0,1-2.8-7.52,10.59,10.59,0,0,1,2.8-7.48A8.88,8.88,0,0,1,163.2,25a7.41,7.41,0,0,1,6,2.44ZM164.4,40.46a4.67,4.67,0,0,0,3.44-1.32,4.83,4.83,0,0,0,1.32-3.56A4.83,4.83,0,0,0,167.84,32,5.14,5.14,0,0,0,161,32a4.83,4.83,0,0,0-1.32,3.56A4.83,4.83,0,0,0,161,39.14,4.67,4.67,0,0,0,164.4,40.46Z"/><path class="cls-2" d="M185.56,29.14c.76-2.56,3.28-4,6-4V32a5.93,5.93,0,0,0-4.12.76,4,4,0,0,0-1.88,3.8v9h-6v-20h6Z"/><path class="cls-2" d="M213.56,45.58h-6.8l-6.4-8.84v8.84h-6v-28h6V34.34l6-8.76h7l-7.28,10Z"/><path class="cls-2" d="M221.12,38c.68,1.88,2.28,2.8,4.8,2.8a5,5,0,0,0,3.84-1.52l4.8,2.76c-2,2.76-4.88,4.12-8.72,4.12a11,11,0,0,1-8.08-3,10.25,10.25,0,0,1-3-7.56A10.26,10.26,0,0,1,225.4,25a9.49,9.49,0,0,1,7.24,3,10.32,10.32,0,0,1,2.92,7.52,11.63,11.63,0,0,1-.24,2.4Zm8.48-4.48a4,4,0,0,0-4.24-3.16A4.06,4.06,0,0,0,221,33.5Z"/><path class="cls-2" d="M250.08,31.34H246v7.08c0,1.6,1.2,1.88,4.12,1.72v5.44q-5.7.6-7.92-1.08c-1.48-1.16-2.2-3.16-2.2-6.08V31.34h-3.2V25.58H240v-3.8l6-1.8v5.6h4.12Z"/><path class="cls-2" d="M254.4,22.82a3.43,3.43,0,0,1,0-4.88,3.57,3.57,0,0,1,5,0,3.36,3.36,0,0,1,0,4.88A3.65,3.65,0,0,1,254.4,22.82Zm-.52,22.76v-20h6v20Z"/><path class="cls-2" d="M281.32,27.22a8.3,8.3,0,0,1,2.16,6.08V45.58h-6V34.18A3.3,3.3,0,0,0,274,30.54c-2.28,0-3.72,1.4-3.72,4.12V45.58h-6v-20h6v1.88C271.48,25.82,273.4,25,276,25A7,7,0,0,1,281.32,27.22Z"/><path class="cls-2" d="M302.28,25.58h5.83v19c0,3.16-1,5.52-3.07,7.12a11.6,11.6,0,0,1-7.48,2.44c-4.52,0-7.68-1.6-9.48-4.84l5.12-3a4.79,4.79,0,0,0,4.56,2.52c2.84,0,4.52-1.52,4.52-4.28V42.74a7.09,7.09,0,0,1-5.84,2.6,9.39,9.39,0,0,1-7-3,10.12,10.12,0,0,1-2.8-7.2A10,10,0,0,1,289.4,28a9.28,9.28,0,0,1,7-3,7.09,7.09,0,0,1,5.84,2.6Zm-4.84,14.24a5,5,0,0,0,3.48-1.28,4.32,4.32,0,0,0,1.36-3.36,4.32,4.32,0,0,0-1.36-3.36,5.37,5.37,0,0,0-7,0,4.32,4.32,0,0,0-1.36,3.36A4.32,4.32,0,0,0,294,38.54,5,5,0,0,0,297.44,39.82Z"/><rect class="cls-3" width="67.96" height="67.96" rx="17"/><path class="cls-2" d="M34,10.36A23.65,23.65,0,0,0,10.36,34a23,23,0,0,0,.17,2.77l9.08-2.61V34A14.37,14.37,0,1,1,34,48.35,14.05,14.05,0,0,1,30.65,48l-4.54,8.28A23.32,23.32,0,0,0,34,57.59a23.62,23.62,0,0,0,0-47.23Z"/><polygon class="cls-2" points="33.98 33.98 8.64 41.25 18.2 44.46 29.07 37.83 19.7 45.81 21.85 56.09 33.98 33.98"/><circle class="cls-4" cx="33.98" cy="33.98" r="2.04"/><path class="cls-2" d="M41.36,28.44c-.11-.15-.23-.3-.35-.44a9.23,9.23,0,0,0-16.17,4.64l1.46-.42a7.87,7.87,0,0,1,13.25-3.8,7.37,7.37,0,0,1,1.08,1.34A7.81,7.81,0,0,1,41.86,34,7.9,7.9,0,0,1,34,41.86l-.73,1.33c.23,0,.47,0,.71,0a9.23,9.23,0,0,0,7.38-14.77Z"/></g></g></svg>