<?xml version="1.0" encoding="iso-8859-1"?>
<!-- Generator: Adobe Illustrator 19.0.0, SVG Export Plug-In . SVG Version: 6.00 Build 0)  -->
<svg version="1.1" id="Layer_1" xmlns="http://www.w3.org/2000/svg" xmlns:xlink="http://www.w3.org/1999/xlink" x="0px" y="0px"
	 viewBox="0 0 469.333 469.333" style="enable-background:new 0 0 469.333 469.333;" xml:space="preserve">
<g>
	<g>
		<g>
			<path d="M458.667,384h-448C4.771,384,0,388.771,0,394.667v32c0,23.531,19.135,42.667,42.667,42.667h384
				c23.531,0,42.667-19.135,42.667-42.667v-32C469.333,388.771,464.563,384,458.667,384z"/>
			<path d="M458.667,106.667h-85.333c-5.896,0-10.667,4.771-10.667,10.667V160c0,5.885-4.781,10.667-10.667,10.667
				c-5.885,0-10.667-4.781-10.667-10.667v-42.667V42.667C341.333,19.135,322.198,0,298.667,0h-128C147.135,0,128,19.135,128,42.667
				v74.667V160c0,5.885-4.781,10.667-10.667,10.667c-5.885,0-10.667-4.781-10.667-10.667v-42.667
				c0-5.896-4.771-10.667-10.667-10.667H10.667C4.771,106.667,0,111.437,0,117.333V352c0,5.896,4.771,10.667,10.667,10.667h448
				c5.896,0,10.667-4.771,10.667-10.667V117.333C469.333,111.437,464.563,106.667,458.667,106.667z M298.667,106.667h-128v-64h128
				V106.667z"/>
		</g>
	</g>
</g>
<g>
</g>
<g>
</g>
<g>
</g>
<g>
</g>
<g>
</g>
<g>
</g>
<g>
</g>
<g>
</g>
<g>
</g>
<g>
</g>
<g>
</g>
<g>
</g>
<g>
</g>
<g>
</g>
<g>
</g>
</svg>
