<svg height="512pt" viewBox="0 0 512 512" width="512pt" xmlns="http://www.w3.org/2000/svg"><path d="m492 187.332031h-29.316406c-3.289063-9.90625-7.296875-19.566406-11.992188-28.914062l20.742188-20.738281c7.804687-7.808594 7.808594-20.476563 0-28.285157l-68.828125-68.828125c-7.804688-7.804687-20.472657-7.808594-28.285157 0l-20.738281 20.742188c-9.34375-4.695313-19.007812-8.703125-28.914062-11.992188v-29.316406c0-11.046875-8.953125-20-20-20h-97.335938c-11.046875 0-20 8.953125-20 20v29.316406c-9.90625 3.292969-19.566406 7.296875-28.914062 11.992188l-20.738281-20.742188c-7.808594-7.804687-20.476563-7.808594-28.285157 0l-68.828125 68.828125c-7.804687 7.804688-7.808594 20.476563.003906 28.285157l20.738282 20.742187c-4.691406 9.34375-8.699219 19.003906-11.992188 28.910156h-29.316406c-11.046875 0-20 8.953125-20 20v97.335938c0 11.046875 8.953125 20 20 20h29.316406c3.289063 9.90625 7.296875 19.570312 11.992188 28.914062l-20.742188 20.742188c-7.804687 7.804687-7.808594 20.472656 0 28.28125l68.828125 68.828125c7.804688 7.804687 20.472657 7.808594 28.285157 0l20.738281-20.742188c9.34375 4.695313 19.007812 8.703125 28.914062 11.992188v29.316406c0 11.046875 8.953125 20 20 20h97.335938c11.046875 0 20-8.953125 20-20v-29.316406c9.90625-3.292969 19.566406-7.296875 28.910156-11.992188l20.742187 20.742188c7.808594 7.804687 20.476563 7.808594 28.285157 0l68.828125-68.828125c7.804687-7.804688 7.808594-20.472657-.003906-28.285157l-20.738282-20.738281c4.691406-9.347656 8.699219-19.007812 11.992188-28.914062h29.316406c11.046875 0 20-8.953125 20-20v-97.335938c0-11.046875-8.953125-20-20-20zm-207.332031 284.667969h-57.335938c0-11.175781 0-235.972656 0-248.496094l28.667969-47.125 28.667969 47.125zm187.332031-187.332031h-24.296875c-9.152344 0-17.140625 6.21875-19.386719 15.09375-4.1875 16.546875-10.761718 32.398437-19.542968 47.121093-4.6875 7.867188-3.4375 17.914063 3.039062 24.386719l17.195312 17.195313-40.542968 40.542968-17.195313-17.195312c-6.476562-6.476562-16.523437-7.726562-24.386719-3.039062-7.152343 4.265624-14.578124 8-22.214843 11.207031v-202.082031c0-3.667969-1.007813-7.261719-2.914063-10.394532l-48.667968-80c-3.628907-5.964844-10.105469-9.605468-17.085938-9.605468-6.984375 0-13.460938 3.640624-17.089844 9.605468l-48.667968 80c-1.902344 3.132813-2.910157 6.726563-2.910157 10.394532v202.082031c-7.640625-3.207031-15.0625-6.941407-22.21875-11.207031-7.867187-4.6875-17.910156-3.4375-24.382812 3.039062l-17.195313 17.195312-40.542968-40.542968 17.195312-17.195313c6.476562-6.476562 7.726562-16.519531 3.035156-24.386719-8.777344-14.722656-15.355468-30.574218-19.539062-47.121093-2.246094-8.875-10.234375-15.09375-19.390625-15.09375h-24.292969v-57.335938h24.296875c9.152344 0 17.140625-6.21875 19.386719-15.09375 4.1875-16.546875 10.761718-32.398437 19.542968-47.121093 4.6875-7.867188 3.4375-17.910157-3.039062-24.386719l-17.195312-17.195313 40.542968-40.542968 17.195313 17.195312c6.476562 6.476562 16.519531 7.726562 24.386719 3.039062 14.71875-8.78125 30.574218-15.355468 47.121093-19.542968 8.878907-2.246094 15.09375-10.234375 15.09375-19.386719v-24.296875h57.335938v24.296875c0 9.152344 6.21875 17.140625 15.09375 19.386719 16.550781 4.1875 32.402343 10.761718 47.125 19.542968 7.863281 4.6875 17.910156 3.4375 24.382812-3.039062l17.195313-17.195312 40.542968 40.542968-17.195312 17.195313c-6.476562 6.476562-7.726562 16.523437-3.035156 24.386719 8.777344 14.71875 15.355468 30.574218 19.539062 47.121093 2.246094 8.875 10.234375 15.09375 19.390625 15.09375h24.292969zm0 0"/></svg>